Coordinates
version=1
nRows=13
nColumns=38
inDegrees=no

Units are S.I. units (second, meters, Newtons, ...)
If the header above contains a line with 'inDegrees', this indicates whether rotational values are in degrees (yes) or radians (no).

endheader
time	pelvis_tilt	pelvis_list	pelvis_rotation	pelvis_tx	pelvis_ty	pelvis_tz	hip_flexion_r	hip_adduction_r	hip_rotation_r	knee_angle_r	ankle_angle_r	subtalar_angle_r	mtp_angle_r	hip_flexion_l	hip_adduction_l	hip_rotation_l	knee_angle_l	ankle_angle_l	subtalar_angle_l	mtp_angle_l	lumbar_extension	lumbar_bending	lumbar_rotation	arm_flex_r	arm_add_r	arm_rot_r	elbow_flex_r	pro_sup_r	wrist_flex_r	wrist_dev_r	arm_flex_l	arm_add_l	arm_rot_l	elbow_flex_l	pro_sup_l	wrist_flex_l	wrist_dev_l
1.24167	0.107896	-0.0379252	-0.312662	-2.11899	1.01469	-0.50831	-0.226724	0.0321098	-0.164187	0	-0.0213642	0	0	-0.175055	-0.13169	-0.216833	0.0175989	-0.107968	0	0	-0.211111	-0.0178889	-0.070138	0.111567	-0.153395	0.0710484	0.174296	1.26204	0	0	-0.00703011	-0.137067	-0.361505	0.338495	1.29215	0	0
1.25	0.118521	-0.0435387	-0.321801	-2.12023	1.01593	-0.508532	-0.235319	0.0314939	-0.151905	0	-0.0289177	0	0	-0.190749	-0.131346	-0.220943	0.0136463	-0.115669	0	0	-0.228042	-0.0165693	-0.0562927	0.121808	-0.149837	-0.00454694	0.159293	1.36524	0	0	0.00223828	-0.133321	-0.399842	0.339042	1.35918	0	0
1.25833	0.116374	-0.0432276	-0.315059	-2.11942	1.0157	-0.509468	-0.234593	0.032626	-0.158161	0	-0.0285061	0	0	-0.187576	-0.132194	-0.215635	0.0133705	-0.113619	0	0	-0.22592	-0.0141739	-0.0602655	0.118809	-0.150144	0.0191382	0.162159	1.33133	0	0	0.00068115	-0.134743	-0.389573	0.346601	1.33907	0	0
1.26667	0.117219	-0.0443897	-0.31721	-2.11952	1.01584	-0.509816	-0.234691	0.0325176	-0.155613	0	-0.0295455	0	0	-0.190175	-0.132273	-0.216537	0.0114999	-0.115689	0	0	-0.227868	-0.0126853	-0.0561136	0.122581	-0.148172	-0.00789875	0.155976	1.36818	0	0	0.00370705	-0.134693	-0.397152	0.346911	1.35563	0	0
1.275	0.104722	-0.0404161	-0.315663	-2.11902	1.01476	-0.510301	-0.220703	0.0326922	-0.16206	0	-0.0208538	0	0	-0.1759	-0.132339	-0.217799	0.0112103	-0.109266	0	0	-0.215106	-0.0119399	-0.0567133	0.114553	-0.151298	0.0757091	0.16922	1.25389	0	0	-0.00272666	-0.139477	-0.36127	0.364024	1.29154	0	0
1.28333	0.113939	-0.0447781	-0.313857	-2.11869	1.01579	-0.510906	-0.231552	0.0333723	-0.159074	0	-0.0292661	0	0	-0.188029	-0.133023	-0.21232	0.00932714	-0.117617	0	0	-0.227804	-0.00942739	-0.0545986	0.121244	-0.147251	-0.0117547	0.1565	1.36801	0	0	0.00248315	-0.136627	-0.393634	0.365023	1.35577	0	0
1.29167	0.111255	-0.0440941	-0.309976	-2.11733	1.01567	-0.511602	-0.231068	0.0336238	-0.162096	0	-0.028851	0	0	-0.187081	-0.132681	-0.209169	0.00626509	-0.117063	0	0	-0.224734	-0.00787963	-0.0576098	0.116661	-0.148048	0.0114862	0.161216	1.33343	0	0	-0.00068009	-0.137861	-0.385857	0.370954	1.33806	0	0
1.3	0.112011	-0.0457423	-0.311579	-2.11819	1.0159	-0.511907	-0.229711	0.0343306	-0.161301	0	-0.0284859	0	0	-0.187839	-0.13369	-0.209835	0.00597866	-0.119986	0	0	-0.229061	-0.00637975	-0.0548364	0.122564	-0.145857	-0.0125698	0.155522	1.36554	0	0	0.00248788	-0.138314	-0.390591	0.374905	1.35499	0	0
1.30833	0.0999869	-0.0431183	-0.310848	-2.11777	1.01501	-0.512249	-0.216331	0.0357172	-0.166938	0	-0.0182974	0	0	-0.173946	-0.135125	-0.212811	0.00748128	-0.111652	0	0	-0.215969	-0.00482337	-0.0556927	0.114445	-0.14881	0.0674237	0.169371	1.2552	0	0	-0.00416374	-0.142964	-0.35767	0.387338	1.29016	0	0
1.31667	0.102247	-0.0467244	-0.315095	-2.11831	1.01543	-0.511871	-0.225302	0.0396961	-0.141702	0	-0.0226993	0	0	-0.17788	-0.137804	-0.215581	0.00917311	-0.11211	0	0	-0.218864	-0.00407598	-0.0530002	0.119362	-0.145176	0.0331498	0.16711	1.30196	0	0	-0.00346243	-0.142045	-0.379518	0.391035	1.32249	0	0
1.325	0.100811	-0.0479565	-0.316241	-2.11867	1.01556	-0.511993	-0.222374	0.040923	-0.126796	0	-0.0208068	0	0	-0.177763	-0.139396	-0.215828	0.00680423	-0.11047	0	0	-0.217098	-0.0032464	-0.0528885	0.122306	-0.142022	0.00226972	0.165416	1.34636	0	0	-0.00368058	-0.142395	-0.3918	0.395167	1.34645	0	0
1.33333	0.0980926	-0.0490038	-0.31655	-2.11827	1.01539	-0.512123	-0.217085	0.0419986	-0.127822	0	-0.0194868	0	0	-0.177395	-0.141085	-0.21337	0.00374556	-0.11258	0	0	-0.215705	-0.0011034	-0.0518235	0.124038	-0.140657	-0.0182253	0.164191	1.3741	0	0	-0.00404374	-0.143044	-0.39561	0.400042	1.36119	0	0
1.34167	0.0937612	-0.0486383	-0.303699	-2.12048	1.01527	-0.513726	-0.204663	0.0445877	-0.14384	0	-0.0133742	0	0	-0.161221	-0.145446	-0.203901	0.0152818	-0.106221	0	0	-0.216004	0.00161593	-0.0663596	0.126486	-0.139895	0.0473318	0.172765	1.27625	0	0	-0.00183334	-0.149092	-0.372162	0.407325	1.31	0	0
